<?xml version="1.0" encoding="UTF-8"?>
<!DOCTYPE svg PUBLIC "-//W3C//DTD SVG 1.1//EN" "http://www.w3.org/Graphics/SVG/1.1/DTD/svg11.dtd">
<!-- Creator: CorelDRAW X6 -->
<svg xmlns="http://www.w3.org/2000/svg" xml:space="preserve" width="0.946283in" height="0.117654in" version="1.1" style="shape-rendering:geometricPrecision; text-rendering:geometricPrecision; image-rendering:optimizeQuality; fill-rule:evenodd; clip-rule:evenodd"
viewBox="0 0 525 65"
 xmlns:xlink="http://www.w3.org/1999/xlink">
 <defs>
  <style type="text/css">
   <![CDATA[
    .fil2 {fill:#11515C}
    .fil1 {fill:#191919;fill-rule:nonzero}
    .fil0 {fill:#11515C;fill-rule:nonzero}
   ]]>
  </style>
 </defs>
 <g id="Layer_x0020_1">
  <metadata id="CorelCorpID_0Corel-Layer"/>
  <g id="_580976488">
   <path class="fil0" d="M102 61c-8,0 -15,-3 -21,-8 -6,-6 -8,-13 -8,-21 0,-8 3,-15 8,-21 6,-6 13,-8 21,-8 8,0 15,3 21,8l-8 9c-4,-3 -9,-5 -14,-5 -5,0 -9,2 -13,5 -3,3 -5,7 -5,12 0,5 2,10 5,13 3,3 7,5 13,5 4,0 7,-1 10,-2l0 -10 -8 0 0 -11 19 0 0 27c-6,5 -13,8 -21,8z"/>
   <path class="fil0" d="M161 61c-8,0 -15,-3 -21,-8 -6,-6 -8,-13 -8,-21 0,-8 3,-15 8,-21 6,-6 13,-8 21,-8 8,0 15,3 21,8 6,6 8,13 8,21 0,8 -3,15 -8,21 -6,6 -13,8 -21,8zm0 -11c5,0 9,-2 13,-5 3,-4 5,-8 5,-13 0,-5 -2,-10 -5,-13 -3,-3 -7,-5 -13,-5 -5,0 -9,2 -13,5 -3,4 -5,8 -5,13 0,5 2,10 5,13 3,4 7,5 13,5z"/>
   <polygon class="fil0" points="196,2 196,13 216,13 216,61 227,61 227,13 247,13 247,2 "/>
   <path class="fil1" d="M282 61c-8,0 -15,-3 -21,-8 -6,-6 -8,-13 -8,-21 0,-8 3,-15 8,-21 6,-6 13,-8 21,-8 8,0 15,3 21,8l-8 9c-4,-3 -9,-5 -14,-5 -5,0 -9,2 -13,5 -3,3 -5,7 -5,12 0,5 2,10 5,13 3,3 7,5 13,5 5,0 10,-2 14,-5l8 9c-6,5 -13,8 -21,8z"/>
   <polygon class="fil1" points="316,2 316,61 359,61 359,50 328,50 328,2 "/>
   <path class="fil1" d="M366 61l23 -58 12 0 23 58 -12 0 -4 -9 -26 0 -4 9 -12 0zm30 -43l-9 22 18 0 -9 -22z"/>
   <path class="fil1" d="M452 2c5,0 10,1 13,2 3,1 6,3 8,6l-8 8c-3,-3 -6,-5 -11,-5 -5,0 -8,1 -9,3 -1,2 -1,4 0,6 1,2 4,3 9,3 5,1 9,2 13,5 4,3 6,7 6,13 0,5 -2,9 -6,12 -4,3 -9,5 -15,5 -5,0 -10,-1 -14,-2 -4,-2 -7,-4 -9,-6l8 -8c3,3 7,5 13,5 5,0 8,-1 10,-3 1,-2 1,-4 0,-7 -1,-2 -5,-4 -10,-4 -5,-1 -9,-2 -13,-4 -4,-2 -6,-6 -6,-12 0,-5 2,-9 7,-12 4,-3 9,-5 14,-5z"/>
   <path class="fil1" d="M503 2c5,0 10,1 13,2 3,1 6,3 8,6l-8 8c-3,-3 -6,-5 -11,-5 -5,0 -8,1 -9,3 -1,2 -1,4 0,6 1,2 4,3 9,3 5,1 9,2 13,5 4,3 6,7 6,13 0,5 -2,9 -6,12 -4,3 -9,5 -15,5 -5,0 -10,-1 -14,-2 -4,-2 -7,-4 -9,-6l8 -8c3,3 7,5 13,5 5,0 8,-1 10,-3 1,-2 1,-4 0,-7 -1,-2 -5,-4 -10,-4 -5,-1 -9,-2 -13,-4 -4,-2 -6,-6 -6,-12 0,-5 2,-9 7,-12 4,-3 9,-5 14,-5z"/>
   <path class="fil2" d="M9 28l3 0 0 -19c0,-4 0,-5 2,-5l23 0c4,0 3,-1 3,7 0,6 1,7 7,7 1,0 2,0 3,0 4,0 3,-1 3,3 0,1 0,2 0,3l0 38c0,1 0,2 -2,2l-38 0c-1,0 -1,-1 -1,-2 0,-2 0,-4 0,-6l-3 0c0,2 0,7 0,8 1,3 4,3 6,3l35 0c2,0 5,0 6,-3 0,-1 0,-7 0,-8 0,-12 0,-23 0,-35 0,-6 0,-4 -1,-5 -1,-1 -6,-6 -6,-7l-4 -4c0,0 0,0 -1,0 0,0 0,0 -1,-1 0,0 -2,-2 -2,-2 -5,0 -10,0 -15,0 -3,0 -13,0 -14,0 -2,1 -2,3 -2,5 0,2 0,5 0,7 0,5 0,10 0,15zm13 14l2 0c0,-1 -1,-3 -1,-3 0,1 -1,3 -1,3zm-20 -10c-3,1 -2,3 -2,6 0,3 0,5 0,8 0,3 1,4 4,4 3,0 5,0 8,0 2,0 31,0 32,0 3,-1 2,-3 2,-6 0,-3 0,-5 0,-8 0,-3 -1,-4 -4,-4 -3,0 -5,0 -8,0 -5,0 -11,0 -16,0 -2,0 -15,0 -16,0zm5 5c-4,1 -3,7 -1,8 2,1 4,0 5,-1 0,0 1,-2 0,-2 -1,0 -1,1 -2,2 0,0 -2,1 -2,0 -2,-1 -2,-6 1,-6 1,0 1,1 2,1 1,1 2,0 1,-1 0,-1 -3,-2 -4,-2zm23 2c0,-1 2,-2 3,0 1,1 2,0 1,-1 -1,-1 -3,-2 -4,-1 -2,1 -3,3 -1,4 1,1 5,1 3,3 -1,1 -2,1 -3,0 -1,0 -1,-2 -2,-1 -1,1 0,3 3,3 3,0 3,-3 3,-4 -1,-2 -4,-1 -5,-2zm8 0c0,-1 0,-1 1,-1 0,0 1,0 2,0 1,0 1,2 2,1 1,0 0,-3 -3,-3 -2,0 -3,2 -2,4 1,1 5,1 4,3 0,1 -2,1 -3,0 -1,0 -1,-2 -2,-2 -1,1 0,3 3,3 3,0 4,-2 3,-4 -1,-2 -3,-1 -5,-2zm-17 6c0,0 1,-1 1,-2l3 0c0,1 0,1 1,2 2,0 1,-2 0,-4 0,-1 -1,-2 -1,-2 0,-1 -1,-2 -2,-2 -1,0 -2,3 -2,4 0,1 -1,2 -1,2 0,1 -1,2 1,2zm-6 -1c0,-1 0,-6 0,-7 0,0 -1,0 -1,0 0,0 0,4 0,5 0,4 0,3 4,3 3,0 2,-1 1,-1 -1,0 -3,0 -4,0z"/>
  </g>
 </g>
</svg>
