<?xml version="1.0" encoding="UTF-8"?>
<!DOCTYPE svg PUBLIC "-//W3C//DTD SVG 1.1//EN" "http://www.w3.org/Graphics/SVG/1.1/DTD/svg11.dtd">
<!-- Creator: CorelDRAW X6 -->
<svg xmlns="http://www.w3.org/2000/svg" xml:space="preserve" width="0.947476in" height="0.121512in" version="1.1" style="shape-rendering:geometricPrecision; text-rendering:geometricPrecision; image-rendering:optimizeQuality; fill-rule:evenodd; clip-rule:evenodd"
viewBox="0 0 526 67"
 xmlns:xlink="http://www.w3.org/1999/xlink">
 <defs>
  <style type="text/css">
   <![CDATA[
    .fil2 {fill:#FF3030}
    .fil1 {fill:#191919;fill-rule:nonzero}
    .fil0 {fill:#FF3030;fill-rule:nonzero}
   ]]>
  </style>
 </defs>
 <g id="Layer_x0020_1">
  <metadata id="CorelCorpID_0Corel-Layer"/>
  <g id="_491648272">
   <path class="fil0" d="M106 65c-9,0 -16,-3 -22,-9 -6,-6 -9,-13 -9,-22 0,-9 3,-16 9,-22 6,-6 13,-9 22,-9 9,0 17,3 23,8l-8 9c-4,-3 -9,-5 -15,-5 -6,0 -10,2 -14,5 -3,3 -5,8 -5,13 0,6 2,10 5,14 3,3 8,5 14,5 4,0 8,-1 10,-3l0 -11 -8 0 0 -12 21 0 0 29c-6,6 -14,8 -23,8z"/>
   <path class="fil0" d="M169 65c-9,0 -16,-3 -22,-9 -6,-6 -9,-13 -9,-22 0,-9 3,-16 9,-22 6,-6 13,-9 22,-9 9,0 16,3 22,9 6,6 9,13 9,22 0,9 -3,16 -9,22 -6,6 -13,9 -22,9zm0 -12c6,0 10,-2 13,-6 3,-4 5,-8 5,-14 0,-6 -2,-10 -5,-14 -3,-4 -8,-6 -14,-6 -6,0 -10,2 -13,6 -3,4 -5,8 -5,14 0,6 2,10 5,14 3,4 8,6 14,6z"/>
   <polygon class="fil0" points="207,3 207,14 227,14 227,65 240,65 240,14 261,14 261,3 "/>
   <polygon class="fil1" points="270,65 270,3 316,3 316,14 282,14 282,27 307,27 307,39 282,39 282,53 315,53 315,65 "/>
   <polygon class="fil1" points="349,32 327,3 341,3 356,22 371,3 385,3 363,32 387,65 372,65 356,43 340,65 325,65 "/>
   <path class="fil1" d="M392 65l25 -62 12 0 25 62 -13 0 -4 -10 -28 0 -4 10 -13 0zm32 -46l-9 24 19 0 -9 -24z"/>
   <polygon class="fil1" points="464,65 464,3 468,3 495,33 522,3 526,3 526,65 514,65 514,29 495,50 476,29 476,65 "/>
   <path class="fil2" d="M7 0c-2,0 -4,1 -5,3 -1,2 -2,3 -2,6l0 47c0,4 -1,9 4,11 2,1 4,1 7,1l31 0c2,0 5,0 8,0 2,0 4,-1 5,-3 1,-2 2,-3 2,-6l0 -47c0,-4 1,-9 -4,-11 -2,-1 -4,-1 -7,-1 -3,0 -5,0 -8,0l-23 0c-2,0 -5,0 -8,0zm9 20c-1,-1 -2,-3 -3,-2 -1,1 0,2 1,4 2,4 3,3 6,-1l4 -4c0,-1 0,-2 -1,-1 -1,0 -2,2 -3,3l-1 1c0,0 -1,1 -2,1zm0 15c-1,-1 -2,-3 -3,-2 -1,1 0,3 1,4 1,1 1,3 3,2 0,0 6,-7 6,-7 0,-1 0,-3 -3,0l-4 4zm11 -16c-2,1 -1,3 0,3l17 0c2,0 2,-3 0,-3 -1,0 -17,0 -17,0zm0 14c-2,0 -2,3 0,3 0,0 16,0 17,0 2,0 2,-3 0,-3 -1,0 -5,0 -6,0 -2,0 -11,0 -11,0zm0 14c-2,0 -2,3 0,3 1,0 16,0 17,0 2,0 2,-3 0,-3 -1,0 -5,0 -6,0 -2,0 -10,0 -11,0zm-11 -4c-3,1 -6,4 -5,7 1,3 4,5 7,5 3,-1 5,-3 5,-7 -1,-3 -3,-5 -7,-5zm0 2c-5,2 -3,9 2,7 2,0 3,-2 3,-5 0,-2 -2,-3 -5,-3zm-10 -40c-2,0 -3,2 -3,4l0 20c0,9 0,18 0,27 0,6 -1,8 6,8 3,0 39,0 41,0 2,-1 3,-2 3,-4l0 -47c0,-6 1,-8 -6,-8l-34 0c-2,0 -6,0 -7,0z"/>
  </g>
 </g>
</svg>
