<?xml version="1.0" encoding="UTF-8"?>
<!DOCTYPE svg PUBLIC "-//W3C//DTD SVG 1.1//EN" "http://www.w3.org/Graphics/SVG/1.1/DTD/svg11.dtd">
<!-- Creator: CorelDRAW X6 -->
<svg xmlns="http://www.w3.org/2000/svg" xml:space="preserve" width="1.22383in" height="0.121823in" version="1.1" style="shape-rendering:geometricPrecision; text-rendering:geometricPrecision; image-rendering:optimizeQuality; fill-rule:evenodd; clip-rule:evenodd"
viewBox="0 0 878 87"
 xmlns:xlink="http://www.w3.org/1999/xlink">
 <defs>
  <style type="text/css">
   <![CDATA[
    .fil2 {fill:#FF821C}
    .fil1 {fill:#191919;fill-rule:nonzero}
    .fil0 {fill:#FF821C;fill-rule:nonzero}
   ]]>
  </style>
 </defs>
 <g id="Layer_x0020_1">
  <metadata id="CorelCorpID_0Corel-Layer"/>
  <g id="_491648776">
   <path class="fil0" d="M155 84c-12,0 -21,-4 -29,-12 -8,-8 -12,-18 -12,-29 0,-11 4,-21 12,-29 8,-8 17,-12 29,-12 12,0 22,4 30,11l-11 12c-6,-4 -12,-7 -19,-7 -7,0 -13,2 -18,7 -4,5 -7,10 -7,17 0,8 2,14 7,18 4,4 10,7 18,7 6,0 10,-1 14,-3l0 -14 -11 0 0 -15 27 0 0 38c-8,7 -18,11 -30,11z"/>
   <path class="fil0" d="M238 84c-12,0 -21,-4 -29,-12 -8,-8 -12,-17 -12,-29 0,-12 4,-21 12,-29 8,-8 17,-12 29,-12 12,0 21,4 29,12 8,8 12,17 12,29 0,12 -4,21 -12,29 -8,8 -17,12 -29,12zm0 -15c7,0 13,-2 18,-7 5,-5 7,-11 7,-18 0,-7 -2,-13 -7,-18 -5,-5 -10,-7 -18,-7 -7,0 -13,2 -18,7 -5,5 -7,11 -7,18 0,7 2,13 7,18 5,5 10,7 18,7z"/>
   <polygon class="fil0" points="287,3 287,18 314,18 314,84 330,84 330,18 358,18 358,3 "/>
   <polygon class="fil1" points="370,3 370,84 430,84 430,69 386,69 386,3 "/>
   <polygon class="fil1" points="443,3 459,3 459,84 443,84 "/>
   <path class="fil1" d="M491 19l23 0c6,0 10,2 10,6 0,7 -4,10 -10,10l-23 0 0 -16zm0 33l27 0c8,0 11,3 12,8 0,8 -4,12 -12,12l-27 0 0 -20zm49 -25c-1,-15 -8,-23 -22,-24l-43 0 0 81 46 0c16,-1 24,-9 25,-24 0,-8 -4,-14 -11,-19 4,-2 6,-7 6,-15z"/>
   <path class="fil1" d="M577 36l23 0c7,0 10,-3 10,-9 0,-5 -4,-8 -10,-8l-23 0 0 17zm33 13l20 36 -19 0 -20 -34 -15 0 0 34 -16 0 0 -82 36 0c19,0 29,8 29,23 0,12 -5,19 -15,23z"/>
   <path class="fil1" d="M635 84l33 -82 16 0 33 81 -17 0 -5 -13 -37 0 -5 13 -17 0zm41 -60l-12 31 24 0 -12 -31z"/>
   <path class="fil1" d="M745 36l23 0c7,0 10,-3 10,-9 0,-5 -4,-8 -10,-8l-23 0 0 17zm33 13l20 36 -19 0 -20 -34 -15 0 0 34 -16 0 0 -82 36 0c19,0 29,8 29,23 0,12 -5,19 -15,23z"/>
   <polygon class="fil1" points="802,3 821,3 840,30 859,3 878,3 848,44 848,84 831,84 831,44 "/>
   <path class="fil2" d="M59 23l12 54 18 -4 -12 -54 -18 4zm-59 51l18 0 0 -58 -18 0 0 58zm72 8c0,2 1,5 3,5l13 -3c3,-1 2,-3 2,-6l-18 4zm-14 -65l18 -4c-1,-6 -3,-5 -10,-3 -8,2 -9,1 -8,7zm-21 62l-13 0c-1,9 1,8 6,8 6,0 7,1 7,-8zm-13 -66l13 0c0,-8 1,-8 -6,-8 -2,0 -5,0 -6,1 -1,1 -1,5 -1,7zm18 16l0 0 16 0c0,-8 0,-8 -8,-8 -9,0 -8,-1 -8,8zm16 50l-16 0c0,2 0,6 1,7 1,1 5,1 7,1 2,0 6,0 7,-1 1,-1 1,-5 1,-7zm-58 -71l18 0c0,-9 -1,-8 -9,-8 -9,0 -10,-1 -9,8zm18 71l-18 0c0,1 0,3 0,4 0,5 4,4 9,4 2,0 7,0 8,-1 2,-1 1,-5 1,-7zm24 -42l0 37 16 0 0 -40 -16 0 0 3zm-18 -15l0 52 13 0 0 -55 -13 0 0 4z"/>
  </g>
 </g>
</svg>
