<svg xmlns="http://www.w3.org/2000/svg" width="145.997" height="145.996" viewBox="0 0 145.997 145.996">
  <g id="Tiket_Berbayar" data-name="Tiket Berbayar" transform="translate(-403.003 -603)">
    <path id="Path_1091" data-name="Path 1091" d="M272.521,83.479l-12.7-12.7a11.406,11.406,0,0,1-16.131-16.13l-2.3-2.3-58.07,58.07h70.328l18.873-18.875a5.7,5.7,0,0,0,0-8.064Zm0,0" transform="translate(271.956 565.58)" fill="#16a086"/>
    <path id="Path_1092" data-name="Path 1092" d="M90.969,165.545l61.3-61.3L181.3,133.284l-61.3,61.3Zm0,0" transform="translate(337.973 528.477)" fill="#fff"/>
    <path id="Path_1093" data-name="Path 1093" d="M138.888,339.28a11.4,11.4,0,0,1,11.261-11.4,5.7,5.7,0,0,0-5.558-4.44H15.7a5.7,5.7,0,0,0-5.558,4.44A11.4,11.4,0,0,1,10,350.686v17.965a5.7,5.7,0,0,0,5.7,5.7H144.591a5.7,5.7,0,0,0,5.7-5.7V350.686A11.407,11.407,0,0,1,138.888,339.28Zm0,0" transform="translate(395.854 371.791)" fill="#16a086"/>
    <path id="Path_1094" data-name="Path 1094" d="M104,307h86.686v41.062H104Zm0,0" transform="translate(328.658 383.544)" fill="#fff"/>
    <path id="Path_1095" data-name="Path 1095" d="M124.071,202.539a2.852,2.852,0,1,0-2.016-.835A2.872,2.872,0,0,0,124.071,202.539Zm0,0" transform="translate(316.349 462.292)" fill="#108770"/>
    <path id="Path_1098" data-name="Path 1098" d="M137.443,70.146h-7.956L143.493,56.14a8.555,8.555,0,0,0,0-12.1l-12.7-12.7a2.852,2.852,0,0,0-4.032,0,8.554,8.554,0,0,1-12.1-12.1,2.85,2.85,0,0,0,0-4.032l-12.7-12.7a8.553,8.553,0,0,0-12.1,0l-47.1,47.1A2.852,2.852,0,0,0,46.8,53.634l47.1-47.1a2.85,2.85,0,0,1,4.032,0l10.888,10.887a14.264,14.264,0,0,0,19.762,19.762L139.46,48.075a2.854,2.854,0,0,1,0,4.032L121.421,70.146h-12.5l9.369-9.369a2.852,2.852,0,0,0,0-4.032L89.254,27.71a2.852,2.852,0,0,0-4.033,0L42.784,70.146H8.555A8.564,8.564,0,0,0,0,78.7V96.665a2.852,2.852,0,0,0,2.852,2.852,8.555,8.555,0,1,1,0,17.109A2.851,2.851,0,0,0,0,119.477v17.965A8.565,8.565,0,0,0,8.555,146H137.443A8.565,8.565,0,0,0,146,137.442V119.477a2.851,2.851,0,0,0-2.852-2.852,8.555,8.555,0,0,1,0-17.109A2.852,2.852,0,0,0,146,96.665V78.7a8.564,8.564,0,0,0-8.555-8.555ZM87.237,33.758l25,25L100.855,70.146H89.564l8.36-8.361a2.851,2.851,0,0,0-4.032-4.032L81.5,70.145H50.85ZM140.295,94.1a14.26,14.26,0,0,0,0,27.943v15.4a2.855,2.855,0,0,1-2.852,2.852H8.555A2.855,2.855,0,0,1,5.7,137.442v-15.4A14.26,14.26,0,0,0,5.7,94.1V78.7a2.854,2.854,0,0,1,2.852-2.852H137.443a2.854,2.854,0,0,1,2.852,2.852Zm0,0" transform="translate(403.002 603)" fill="#108770"/>
    <path id="Path_1105" data-name="Path 1105" d="M186.172,441a2.852,2.852,0,1,0,2.016.835A2.874,2.874,0,0,0,186.172,441Zm0,0" transform="translate(271.956 287.754)" fill="#108770"/>
    <path id="Path_1106" data-name="Path 1106" d="M183.537,297H96.852A2.851,2.851,0,0,0,94,299.848v41.062a2.852,2.852,0,0,0,2.852,2.852H108.73a2.852,2.852,0,1,0,0-5.7H99.7V302.7h80.983v35.359H134.393a2.852,2.852,0,0,0,0,5.7h49.144a2.852,2.852,0,0,0,2.852-2.852V299.848A2.851,2.851,0,0,0,183.537,297Zm0,0" transform="translate(335.807 390.693)" fill="#108770"/>
    <path id="Path_1131" data-name="Path 1131" d="M93.83,268.938l12.361-1.037,2.834-12.076,4.805,11.436,12.361-1.037-9.391,8.1,4.805,11.436L111,279.337l-9.391,8.1,2.834-12.077Z" transform="translate(183.541 718.364) rotate(-69)" fill="#31ab94"/>
    <path id="Path_1132" data-name="Path 1132" d="M93.83,262.084l5.9-.495,1.353-5.765,2.294,5.459,5.9-.495-4.483,3.869,2.294,5.459-5.064-3.068-4.483,3.869,1.353-5.765Z" transform="translate(262.714 839.909) rotate(-108)" fill="#31ab94"/>
  </g>
</svg>
