<svg xmlns="http://www.w3.org/2000/svg" xmlns:xlink="http://www.w3.org/1999/xlink" width="141.399" height="137.578" viewBox="0 0 141.399 137.578">
  <defs>
    <linearGradient id="linear-gradient" x1="0.5" x2="0.5" y2="1" gradientUnits="objectBoundingBox">
      <stop offset="0" stop-color="#16a086"/>
      <stop offset="1" stop-color="#029fa1"/>
    </linearGradient>
    <filter id="Rectangle_1877" x="9" y="47.482" width="97.271" height="47.193" filterUnits="userSpaceOnUse">
      <feOffset dy="3" input="SourceAlpha"/>
      <feGaussianBlur stdDeviation="3" result="blur"/>
      <feFlood flood-opacity="0.161"/>
      <feComposite operator="in" in2="blur"/>
      <feComposite in="SourceGraphic"/>
    </filter>
    <linearGradient id="linear-gradient-2" x1="0.5" x2="0.5" y2="1" gradientUnits="objectBoundingBox">
      <stop offset="0" stop-color="#16a086"/>
      <stop offset="1" stop-color="#069f9a"/>
    </linearGradient>
  </defs>
  <g id="_1" data-name="1" transform="translate(-151 -734)">
    <rect id="Rectangle_1869" data-name="Rectangle 1869" width="141.399" height="137.577" rx="68.789" transform="translate(151 734)" fill="#fff"/>
    <g id="Group_5668" data-name="Group 5668" transform="translate(6613.009 23843.35)">
      <g id="find-my-friend" transform="translate(-6410.214 -23076.35)">
        <g id="Group_4356" data-name="Group 4356" transform="translate(0 0)">
          <g id="Group_4355" data-name="Group 4355" transform="translate(0 0)">
            <path id="Path_7280" data-name="Path 7280" d="M69.721,62.031,56.832,49.143a1.39,1.39,0,0,0-1.925-1.925l-3.439-3.439a28.082,28.082,0,0,0,.358-30.869,1.39,1.39,0,1,0-2.339,1.5,25.3,25.3,0,1,1-7.943-7.83,1.39,1.39,0,0,0,1.469-2.36,28.071,28.071,0,1,0,.85,47.156L47.286,54.8a1.389,1.389,0,0,0,1.963,1.963l12.87,12.87a5.3,5.3,0,0,0,3.763,1.553,5.381,5.381,0,0,0,3.84-9.156ZM46.732,50.316,50.4,46.645l2.518,2.518L49.25,52.834Zm21,17.325a2.579,2.579,0,0,1-3.644.027L51.216,54.8l3.671-3.671L67.755,64A2.58,2.58,0,0,1,67.728,67.641Z" transform="translate(-0.12 0)" fill="url(#linear-gradient)"/>
          </g>
        </g>
        <g id="Group_4358" data-name="Group 4358" transform="translate(45.551 7.816)">
          <g id="Group_4357" data-name="Group 4357">
            <path id="Path_7281" data-name="Path 7281" d="M330.143,56.655l-.03-.03a1.39,1.39,0,0,0-1.972,1.96l.036.036a1.39,1.39,0,1,0,1.966-1.966Z" transform="translate(-327.737 -56.214)" fill="#16a086"/>
          </g>
        </g>
        <g id="Group_4360" data-name="Group 4360" transform="translate(6.66 6.671)">
          <g id="Group_4359" data-name="Group 4359">
            <path id="Path_7282" data-name="Path 7282" d="M69.426,47.981A21.408,21.408,0,1,0,90.834,69.389,21.433,21.433,0,0,0,69.426,47.981Zm0,40.036A18.628,18.628,0,1,1,88.054,69.389,18.649,18.649,0,0,1,69.426,88.017Z" transform="translate(-48.018 -47.981)" fill="#16a086"/>
          </g>
        </g>
      </g>
      <g id="Group_4363" data-name="Group 4363" transform="translate(-6444.009 -23055.867)">
        <g transform="matrix(1, 0, 0, 1, -18, -53.48)" filter="url(#Rectangle_1877)">
          <g id="Rectangle_1877-2" data-name="Rectangle 1877" transform="translate(18 53.48)" fill="#f8f8f8" stroke="#eee" stroke-width="0.2">
            <rect width="79.271" height="29.193" rx="1" stroke="none"/>
            <rect x="0.1" y="0.1" width="79.071" height="28.993" rx="0.9" fill="none"/>
          </g>
        </g>
        <rect id="Rectangle_1873" data-name="Rectangle 1873" width="17.233" height="18.853" rx="1" transform="translate(8.616 5.17)" fill="url(#linear-gradient-2)"/>
        <rect id="Rectangle_1874" data-name="Rectangle 1874" width="41.132" height="3.447" rx="1" transform="translate(31.019 5.942)" fill="url(#linear-gradient-2)"/>
        <rect id="Rectangle_1875" data-name="Rectangle 1875" width="41.132" height="3.447" rx="1" transform="translate(31.019 11.883)" fill="url(#linear-gradient-2)"/>
        <rect id="Rectangle_1876" data-name="Rectangle 1876" width="13.559" height="3.447" rx="1" transform="translate(58.592 17.825)" fill="url(#linear-gradient-2)"/>
      </g>
    </g>
  </g>
</svg>
