<svg xmlns="http://www.w3.org/2000/svg" xmlns:xlink="http://www.w3.org/1999/xlink" width="141.399" height="137.578" viewBox="0 0 141.399 137.578">
  <defs>
    <linearGradient id="linear-gradient" x1="0.5" x2="0.5" y2="1" gradientUnits="objectBoundingBox">
      <stop offset="0" stop-color="#16a086"/>
      <stop offset="1" stop-color="#069f9b"/>
    </linearGradient>
    <linearGradient id="linear-gradient-2" x1="0.5" x2="0.5" y2="1" gradientUnits="objectBoundingBox">
      <stop offset="0" stop-color="#16a086"/>
      <stop offset="1" stop-color="#079f9a"/>
    </linearGradient>
    <linearGradient id="linear-gradient-9" x1="0.5" x2="0.5" y2="1" gradientUnits="objectBoundingBox">
      <stop offset="0" stop-color="#16a086"/>
      <stop offset="1" stop-color="#049f9e"/>
    </linearGradient>
  </defs>
  <g id="_2" data-name="2" transform="translate(-501 -734)">
    <rect id="Rectangle_1879" data-name="Rectangle 1879" width="141.399" height="137.577" rx="68.789" transform="translate(501 734)" fill="#fff"/>
    <g id="Group_4367" data-name="Group 4367" transform="translate(-148.026 467)">
      <g id="Group_4366" data-name="Group 4366" transform="translate(147 -468.363)">
        <g id="Group_4362" data-name="Group 4362" transform="translate(537.026 754.365)">
          <path id="Path_7283" data-name="Path 7283" d="M57.463,93.574V15.944A5.944,5.944,0,0,0,51.52,10H49.154l-.882,6.3a3.247,3.247,0,0,1-3.217,2.8H23.05a3.248,3.248,0,0,1-3.217-2.8L18.952,10H15.943A5.943,5.943,0,0,0,10,15.944v77.63a5.943,5.943,0,0,0,5.943,5.943H51.52a5.944,5.944,0,0,0,5.944-5.944ZM22.386,65.1c-4.742-15.139.2-22.227,4.372-22.706,4.224-.485,6.861,5.051,4.677,11.03-1.318,3.606-.439,8.244-.045,9.916a.626.626,0,0,1-.5.758l-7.8,1.432a.627.627,0,0,1-.711-.431ZM29,76.5a4.574,4.574,0,0,1-5.325-3.672L23.2,70.2l9-1.653.482,2.622A4.572,4.572,0,0,1,29,76.5Zm17.724,6.566a4.573,4.573,0,1,1-9-1.653l.481-2.622,9,1.652Zm1.291-7.729a.628.628,0,0,1-.711.431l-7.8-1.433a.625.625,0,0,1-.5-.758c.394-1.673,1.273-6.31-.045-9.917-2.185-5.979.453-11.515,4.677-11.03,4.175.479,9.114,7.568,4.372,22.707Zm.462-39.495a4.17,4.17,0,1,1,4.17-4.171A4.17,4.17,0,0,1,48.479,35.84Zm0,0" transform="translate(-8.181 -8.181)" fill="#fff"/>
          <path id="Path_7288" data-name="Path 7288" d="M63.3,19.1H85.3a3.248,3.248,0,0,0,3.217-2.8L89.4,10H59.2l.882,6.3A3.248,3.248,0,0,0,63.3,19.1Zm0,0" transform="translate(-48.428 -8.181)" fill="#fff"/>
          <path id="Path_7294" data-name="Path 7294" d="M51.1,7.763A7.772,7.772,0,0,0,43.34,0H7.763A7.772,7.772,0,0,0,0,7.763v77.63a7.772,7.772,0,0,0,7.763,7.763H43.34A7.772,7.772,0,0,0,51.1,85.394ZM38.882,3.639,38.29,7.866A1.435,1.435,0,0,1,36.875,9.1H14.87a1.434,1.434,0,0,1-1.414-1.231l-.592-4.227Zm8.581,81.754a4.129,4.129,0,0,1-4.124,4.124H7.762a4.129,4.129,0,0,1-4.124-4.124V7.763A4.129,4.129,0,0,1,7.762,3.639H9.189l.662,4.732a5.089,5.089,0,0,0,5.018,4.365H36.875a5.09,5.09,0,0,0,5.019-4.365l.662-4.732h.783a4.129,4.129,0,0,1,4.124,4.124Zm0,0" transform="translate(0 0)" fill="url(#linear-gradient)"/>
          <path id="Path_7298" data-name="Path 7298" d="M173.262,28.336a1.82,1.82,0,0,0,.313.168,1.8,1.8,0,0,0,.34.1,1.848,1.848,0,0,0,.357.036,1.8,1.8,0,0,0,.355-.036,1.713,1.713,0,0,0,.34-.1,1.834,1.834,0,0,0,.315-.168,1.726,1.726,0,0,0,.276-.225,1.819,1.819,0,0,0,0-2.573,1.725,1.725,0,0,0-.276-.225,1.758,1.758,0,0,0-.315-.168,1.728,1.728,0,0,0-.34-.1,1.816,1.816,0,0,0-.711,0,1.8,1.8,0,0,0-.34.1,1.82,1.82,0,0,0-.313.168,1.724,1.724,0,0,0-.276.225,1.819,1.819,0,0,0,0,2.573A1.724,1.724,0,0,0,173.262,28.336Zm0,0" transform="translate(-141.076 -20.456)" fill="#16a086"/>
          <path id="Path_7299" data-name="Path 7299" d="M93.772,28.639h7.369a1.819,1.819,0,0,0,0-3.639H93.772a1.819,1.819,0,0,0,0,3.639Zm0,0" transform="translate(-75.223 -20.451)" fill="#16a086"/>
          <rect id="Rectangle_1878" data-name="Rectangle 1878" width="41.503" height="70.977" transform="translate(5.682 15.789)" fill="#fff"/>
        </g>
        <g id="Group_4366-2" data-name="Group 4366" transform="translate(566.778 797.124)">
          <path id="Path_7307" data-name="Path 7307" d="M-5624.463-17082.271l1.936-3.709,26.294-25.812,3.871-2.58h2.9l19.356,20.646v2.42l-30.165,29.846-3.227,1.129-3.71-3.064Z" transform="translate(5625.159 17115.66)" fill="#fff"/>
          <g id="credit-card" transform="translate(0 0)">
            <g id="Group_4365" data-name="Group 4365" transform="translate(0 0)">
              <g id="Group_4364" data-name="Group 4364">
                <path id="Path_7300" data-name="Path 7300" d="M54.654,19.277,36.876,1.5a5.108,5.108,0,0,0-7.208,0L1.488,29.679a5.108,5.108,0,0,0,0,7.208L3.68,39.079h0L18.415,53.814h-2.04a1.17,1.17,0,0,0,0,2.339H39.767a1.17,1.17,0,0,0,0-2.339H27.325L54.654,26.485A5.1,5.1,0,0,0,54.654,19.277ZM53,24.831,24.82,53.011a2.737,2.737,0,0,1-1.946.8h-.009a2.736,2.736,0,0,1-1.945-.8L6.162,38.252,33.225,11.189a1.17,1.17,0,1,0-1.654-1.654L4.508,36.6,3.142,35.232a2.769,2.769,0,0,1,0-3.9l28.18-28.18a2.769,2.769,0,0,1,3.9,0l6.328,6.327L14.486,36.544A1.17,1.17,0,1,0,16.14,38.2L43.2,11.135l9.8,9.8A2.761,2.761,0,0,1,53,24.831Z" transform="translate(0 -0.011)" fill="url(#linear-gradient-2)"/>
                <path id="Path_7301" data-name="Path 7301" d="M171.859,305.283a1.17,1.17,0,0,0-1.654,0l-9.2,9.2a1.17,1.17,0,1,0,1.654,1.654l9.2-9.2A1.17,1.17,0,0,0,171.859,305.283Z" transform="translate(-143.041 -271.503)" fill="url(#linear-gradient-2)"/>
                <path id="Path_7302" data-name="Path 7302" d="M194.944,384.959l-3.775,3.775a1.17,1.17,0,0,0,1.654,1.654l3.775-3.775a1.17,1.17,0,1,0-1.654-1.654Z" transform="translate(-169.901 -342.442)" fill="url(#linear-gradient-2)"/>
                <path id="Path_7303" data-name="Path 7303" d="M253.243,353.284l-.5.5a1.17,1.17,0,1,0,1.654,1.654l.5-.5a1.17,1.17,0,0,0-1.654-1.654Z" transform="translate(-224.727 -314.24)" fill="url(#linear-gradient-2)"/>
                <path id="Path_7304" data-name="Path 7304" d="M350.569,161.012a1.17,1.17,0,0,0-1.654,0l-4.962,4.962a1.17,1.17,0,0,0,0,1.654l3.308,3.308a1.17,1.17,0,0,0,1.654,0l4.962-4.962a1.17,1.17,0,0,0,0-1.654Zm-2.481,7.444-1.654-1.654,3.308-3.308,1.654,1.654Z" transform="translate(-305.931 -143.052)" fill="url(#linear-gradient-2)"/>
                <path id="Path_7305" data-name="Path 7305" d="M310.842,57.162a1.165,1.165,0,0,0,.827-.343l.5-.5a1.17,1.17,0,0,0-1.654-1.654l-.5.5a1.17,1.17,0,0,0,.827,2Z" transform="translate(-275.715 -48.371)" fill="url(#linear-gradient-2)"/>
                <path id="Path_7306" data-name="Path 7306" d="M100.4,355.275l-.5.5a1.17,1.17,0,0,0,1.654,1.654l.5-.5a1.17,1.17,0,0,0-1.654-1.654Z" transform="translate(-88.648 -316.013)" fill="url(#linear-gradient-2)"/>
              </g>
            </g>
          </g>
        </g>
      </g>
      <rect id="Rectangle_1880" data-name="Rectangle 1880" width="17.933" height="16.14" rx="1" transform="translate(701 306.135)" fill="url(#linear-gradient-9)"/>
      <rect id="Rectangle_1881" data-name="Rectangle 1881" width="34.933" height="3.14" rx="1" transform="translate(692 327.135)" fill="url(#linear-gradient-9)"/>
      <rect id="Rectangle_1882" data-name="Rectangle 1882" width="32.933" height="3.14" rx="1" transform="translate(691 332.135)" fill="url(#linear-gradient-9)"/>
      <rect id="Rectangle_1883" data-name="Rectangle 1883" width="32.933" height="3.14" rx="1" transform="translate(691 337.135)" fill="url(#linear-gradient-9)"/>
      <rect id="Rectangle_1884" data-name="Rectangle 1884" width="16.933" height="3.14" rx="1" transform="translate(691 342.135)" fill="url(#linear-gradient-9)"/>
    </g>
  </g>
</svg>
