<svg xmlns="http://www.w3.org/2000/svg" xmlns:xlink="http://www.w3.org/1999/xlink" width="141.399" height="137.578" viewBox="0 0 141.399 137.578">
  <defs>
    <linearGradient id="linear-gradient" x1="0.5" x2="0.5" y2="1" gradientUnits="objectBoundingBox">
      <stop offset="0" stop-color="#16a086"/>
      <stop offset="1" stop-color="#039f9f"/>
    </linearGradient>
  </defs>
  <g id="_4" data-name="4" transform="translate(-1206 -734)">
    <rect id="Rectangle_1885" data-name="Rectangle 1885" width="141.399" height="137.577" rx="68.789" transform="translate(1206 734)" fill="#fff"/>
    <g id="seminar" transform="translate(1235 758.904)">
      <g id="Group_4370" data-name="Group 4370" transform="translate(0 4)">
        <g id="Group_4369" data-name="Group 4369" transform="translate(0 0)">
          <path id="Path_7334" data-name="Path 7334" d="M77.6,43.048a6.738,6.738,0,0,0,2.413-5.143,6.658,6.658,0,0,0-.122-1.212c-.015-.083-.027-.164-.045-.245a6.821,6.821,0,0,0-.319-1.027c-.045-.114-.1-.224-.146-.335a6.789,6.789,0,0,0-.441-.811c-.087-.136-.183-.263-.279-.392-.134-.18-.277-.353-.429-.519-.113-.123-.221-.247-.342-.362a6.964,6.964,0,0,0-.6-.507,6.725,6.725,0,0,1,4.081-1.37V28.412A4.074,4.074,0,0,1,77.3,24.343a4,4,0,0,1,.073-.727c.018-.094.043-.184.066-.275a3.862,3.862,0,0,1,.122-.392c.042-.113.085-.225.138-.334.039-.084.088-.164.133-.244a4.086,4.086,0,0,1,2.189-1.844c.005,0,.008-.007.014-.009a4.026,4.026,0,0,1,1.333-.243V17.562A6.787,6.787,0,0,0,80,17.7a9.47,9.47,0,0,0-2.4-1.777,6.781,6.781,0,1,0-8.734,0,9.47,9.47,0,0,0-2.4,1.777,6.772,6.772,0,0,0-2.737,0,9.47,9.47,0,0,0-2.4-1.777,6.781,6.781,0,1,0-8.734,0,9.47,9.47,0,0,0-2.4,1.777,6.772,6.772,0,0,0-2.737,0,9.47,9.47,0,0,0-2.4-1.777,6.781,6.781,0,1,0-8.734,0,9.47,9.47,0,0,0-2.4,1.777,6.772,6.772,0,0,0-2.737,0,9.47,9.47,0,0,0-2.4-1.777,6.781,6.781,0,1,0-8.734,0,9.47,9.47,0,0,0-2.4,1.777,6.772,6.772,0,0,0-2.737,0,9.47,9.47,0,0,0-2.4-1.777A6.767,6.767,0,1,0,1.356,10.781,6.74,6.74,0,0,0,3.77,15.925a9.47,9.47,0,0,0-2.4,1.777A6.787,6.787,0,0,0,0,17.562v2.712a4.026,4.026,0,0,1,1.333.243c.005,0,.008.007.014.009a4.081,4.081,0,0,1,2.189,1.844c.045.08.092.16.133.244.052.108.1.221.138.335a3.836,3.836,0,0,1,.122.391c.024.092.049.183.066.277a3.976,3.976,0,0,1,.073.726A4.074,4.074,0,0,1,0,28.412v2.712a6.739,6.739,0,0,1,4.084,1.37,6.541,6.541,0,0,0-.6.507c-.121.115-.229.239-.342.362a6.55,6.55,0,0,0-.429.519c-.1.129-.193.255-.279.392a6.788,6.788,0,0,0-.441.811c-.052.111-.1.221-.146.335a6.671,6.671,0,0,0-.319,1.027c-.018.081-.03.164-.045.245a6.428,6.428,0,0,0-.125,1.212A6.794,6.794,0,0,0,6.781,44.55V55.536H1.356v2.712h10.85V75.879a1.356,1.356,0,0,0,1.356,1.356H27.124a1.356,1.356,0,0,0,1.356-1.356V58.249H82.729V51.468A9.5,9.5,0,0,0,77.6,43.048Zm-.3-5.143a4.069,4.069,0,0,1-8.137,0,4,4,0,0,1,.073-.727c.018-.094.043-.184.066-.275a3.861,3.861,0,0,1,.122-.392c.042-.113.085-.225.138-.334.039-.084.088-.164.133-.244a4.086,4.086,0,0,1,2.189-1.844c.005,0,.008-.007.014-.009a3.782,3.782,0,0,1,2.666,0c.005,0,.008.007.014.009a4.08,4.08,0,0,1,2.189,1.844c.045.08.092.16.133.244.052.108.1.221.138.335a3.837,3.837,0,0,1,.122.391c.024.092.049.183.066.277A3.976,3.976,0,0,1,77.3,37.905ZM73.236,6.712a4.069,4.069,0,1,1-4.069,4.069A4.074,4.074,0,0,1,73.236,6.712Zm4.082,12.22a6.541,6.541,0,0,0-.6.507c-.121.115-.229.239-.342.362a6.548,6.548,0,0,0-.429.519c-.1.129-.193.255-.279.392a6.788,6.788,0,0,0-.441.811c-.052.111-.1.221-.146.335a6.671,6.671,0,0,0-.319,1.027c-.018.081-.03.164-.045.245a6.54,6.54,0,0,0-.123,1.212,6.74,6.74,0,0,0,2.414,5.144,9.47,9.47,0,0,0-2.4,1.777,6.772,6.772,0,0,0-2.737,0,9.47,9.47,0,0,0-2.4-1.777,6.74,6.74,0,0,0,2.414-5.144,6.658,6.658,0,0,0-.122-1.212c-.015-.083-.027-.164-.045-.245a6.822,6.822,0,0,0-.319-1.027c-.045-.114-.1-.224-.146-.335a6.788,6.788,0,0,0-.441-.811c-.087-.136-.183-.263-.279-.392-.134-.18-.277-.353-.429-.519-.113-.123-.221-.247-.342-.362a6.96,6.96,0,0,0-.6-.507A6.956,6.956,0,0,1,77.318,18.932ZM61.169,23.341a3.861,3.861,0,0,1,.122-.392c.042-.113.085-.225.138-.334.039-.084.088-.164.133-.244a4.086,4.086,0,0,1,2.189-1.844c.005,0,.008-.007.014-.009a3.782,3.782,0,0,1,2.666,0c.005,0,.008.007.014.009a4.081,4.081,0,0,1,2.189,1.844c.045.08.092.16.133.244.052.108.1.221.138.335a3.837,3.837,0,0,1,.122.391c.024.092.049.183.066.277a3.975,3.975,0,0,1,.073.726,4.069,4.069,0,1,1-8.137,0,4,4,0,0,1,.073-.727C61.121,23.523,61.146,23.432,61.169,23.341ZM56.961,6.712a4.069,4.069,0,1,1-4.069,4.069A4.074,4.074,0,0,1,56.961,6.712Zm4.082,12.22a6.542,6.542,0,0,0-.6.507c-.121.115-.229.239-.342.362a6.551,6.551,0,0,0-.429.519c-.1.129-.193.255-.279.392a6.788,6.788,0,0,0-.441.811c-.052.111-.1.221-.146.335a6.672,6.672,0,0,0-.319,1.027c-.018.081-.03.164-.045.245a6.541,6.541,0,0,0-.123,1.212,6.74,6.74,0,0,0,2.414,5.144,9.47,9.47,0,0,0-2.4,1.777,6.772,6.772,0,0,0-2.737,0,9.47,9.47,0,0,0-2.4-1.777A6.74,6.74,0,0,0,55.6,24.343a6.658,6.658,0,0,0-.122-1.212c-.015-.083-.027-.164-.045-.245a6.821,6.821,0,0,0-.319-1.027c-.045-.114-.1-.224-.146-.335a6.787,6.787,0,0,0-.441-.811c-.087-.136-.183-.263-.279-.392-.134-.18-.277-.353-.429-.519-.113-.123-.221-.247-.342-.362a6.961,6.961,0,0,0-.6-.507A6.956,6.956,0,0,1,61.043,18.932ZM60.957,37.18a3.976,3.976,0,0,1,.073.726,4.069,4.069,0,0,1-8.137,0,4,4,0,0,1,.073-.727c.018-.094.043-.184.066-.275a3.86,3.86,0,0,1,.122-.392c.042-.113.085-.225.138-.334.039-.084.088-.164.133-.244a4.086,4.086,0,0,1,2.189-1.844c.005,0,.008-.007.014-.009a3.782,3.782,0,0,1,2.666,0c.005,0,.008.007.014.009A4.081,4.081,0,0,1,60.5,35.933c.045.08.092.16.133.244.052.108.1.221.138.335a3.837,3.837,0,0,1,.122.391C60.914,37,60.939,37.086,60.957,37.18ZM44.895,23.341a3.861,3.861,0,0,1,.122-.392c.042-.113.085-.225.138-.334.039-.084.088-.164.133-.244a4.086,4.086,0,0,1,2.189-1.844c.005,0,.008-.007.014-.009a3.782,3.782,0,0,1,2.666,0c.005,0,.008.007.014.009a4.081,4.081,0,0,1,2.189,1.844c.045.08.092.16.133.244.052.108.1.221.138.335a3.835,3.835,0,0,1,.122.391c.024.092.049.183.066.277a3.976,3.976,0,0,1,.073.726,4.069,4.069,0,1,1-8.137,0,4,4,0,0,1,.073-.727C44.846,23.523,44.872,23.432,44.895,23.341ZM40.687,6.712a4.069,4.069,0,1,1-4.069,4.069A4.074,4.074,0,0,1,40.687,6.712Zm4.082,12.22a6.542,6.542,0,0,0-.6.507c-.121.115-.229.239-.342.362a6.55,6.55,0,0,0-.429.519c-.1.129-.193.255-.279.392a6.788,6.788,0,0,0-.441.811c-.052.111-.1.221-.146.335a6.671,6.671,0,0,0-.319,1.027c-.018.081-.03.164-.045.245a6.541,6.541,0,0,0-.123,1.212,6.739,6.739,0,0,0,2.418,5.147c-.168.088-.328.189-.491.286L43,28.808a1.355,1.355,0,0,0-1.918,0l-2.12,2.12a9.456,9.456,0,0,0-2.048-1.442,6.735,6.735,0,0,0,2.414-5.143,6.658,6.658,0,0,0-.122-1.212c-.015-.083-.027-.164-.045-.245a6.823,6.823,0,0,0-.319-1.027c-.045-.114-.1-.224-.146-.335a6.787,6.787,0,0,0-.441-.811c-.087-.136-.183-.263-.279-.392-.134-.18-.277-.353-.429-.519-.113-.123-.221-.247-.342-.362a6.96,6.96,0,0,0-.6-.507A6.956,6.956,0,0,1,44.769,18.932Zm-.014,18.973a4.065,4.065,0,0,1-4.8,4l4.724-4.724c0,.016.008.033.012.049A4.122,4.122,0,0,1,44.755,37.905Zm-7.71-5.057-3.7,3.7h-2.3A6.69,6.69,0,0,0,28.47,32.5a6.721,6.721,0,0,1,8.575.343ZM28.62,23.341a3.86,3.86,0,0,1,.122-.392c.042-.113.085-.225.138-.334.039-.084.088-.164.133-.244A4.086,4.086,0,0,1,31.2,20.527c.005,0,.008-.007.014-.009a3.782,3.782,0,0,1,2.666,0c.005,0,.008.007.014.009a4.081,4.081,0,0,1,2.189,1.844c.045.08.092.16.133.244.052.108.1.221.138.335a3.835,3.835,0,0,1,.122.391c.024.092.049.183.066.277a3.976,3.976,0,0,1,.073.726,4.069,4.069,0,1,1-8.137,0,4,4,0,0,1,.073-.727C28.571,23.523,28.6,23.432,28.62,23.341ZM24.412,6.712a4.069,4.069,0,1,1-4.069,4.069A4.074,4.074,0,0,1,24.412,6.712Zm4.082,12.22a6.541,6.541,0,0,0-.6.507c-.121.115-.229.239-.342.362a6.551,6.551,0,0,0-.429.519c-.1.129-.193.255-.279.392a6.789,6.789,0,0,0-.441.811c-.052.111-.1.221-.146.335a6.67,6.67,0,0,0-.319,1.027c-.018.081-.03.164-.045.245a6.541,6.541,0,0,0-.123,1.212,6.583,6.583,0,0,0,.081.807,8.129,8.129,0,0,0-2.862-1.713c-.014-.1-.037-.2-.056-.307-.015-.083-.027-.164-.045-.245a6.823,6.823,0,0,0-.319-1.027c-.045-.114-.1-.224-.146-.335a6.788,6.788,0,0,0-.441-.811c-.087-.136-.183-.263-.279-.392-.134-.18-.277-.353-.429-.519-.113-.123-.221-.247-.342-.362a6.745,6.745,0,0,0-.6-.507A6.956,6.956,0,0,1,28.494,18.932Zm-.26,17.617H26.392a8.171,8.171,0,0,0,1-1.374A3.979,3.979,0,0,1,28.234,36.549ZM20.362,25.7a5.212,5.212,0,0,1,5.343,6.041c0,.012-.009.023-.011.035a5.048,5.048,0,0,1-.187.9c0,.008,0,.016,0,.024a5.409,5.409,0,0,1-10.587-1.58,5.351,5.351,0,0,1,.245-1.524c0-.009.011-.015.014-.024a5.5,5.5,0,0,1,.891-1.751c.03-.039.062-.076.094-.114a5.507,5.507,0,0,1,.534-.575c.085-.079.179-.149.27-.222a5.711,5.711,0,0,1,.486-.362c.146-.092.3-.17.457-.248.138-.071.274-.148.418-.206a5.557,5.557,0,0,1,.635-.2c.115-.031.225-.073.343-.1a5.318,5.318,0,0,1,.837-.084C20.216,25.716,20.288,25.7,20.362,25.7Zm-8.017-2.358a3.861,3.861,0,0,1,.122-.392c.042-.113.085-.225.138-.334.039-.084.088-.164.133-.244a4.086,4.086,0,0,1,2.189-1.844c.005,0,.008-.007.014-.009a4.026,4.026,0,0,1,1.333-.243,4.073,4.073,0,0,1,1.273.2c.027.012.045.038.073.047A4.081,4.081,0,0,1,20.1,22.992c-.054,0-.106.012-.16.015-.236.012-.469.031-.7.064-.108.015-.217.031-.324.05-.225.039-.445.091-.663.149-.092.024-.186.043-.277.072a8.069,8.069,0,0,0-.841.308c-.1.042-.19.092-.285.138-.187.09-.37.183-.549.286-.1.058-.2.119-.3.182-.193.122-.378.252-.56.389-.06.046-.122.088-.18.134a8.185,8.185,0,0,0-1.972,2.3,4.088,4.088,0,0,1-.486-.636c-.049-.079-.084-.164-.126-.245a3.985,3.985,0,0,1-.271-.652c-.027-.084-.054-.168-.075-.255a4.063,4.063,0,0,1-.126-.951,4,4,0,0,1,.073-.727C12.3,23.523,12.323,23.432,12.346,23.341ZM8.137,6.712a4.069,4.069,0,1,1-4.069,4.069A4.074,4.074,0,0,1,8.137,6.712ZM4.056,18.932a6.956,6.956,0,0,1,8.166,0,6.541,6.541,0,0,0-.6.507c-.121.115-.229.239-.342.362a6.55,6.55,0,0,0-.429.519c-.1.129-.193.255-.279.392a6.788,6.788,0,0,0-.441.811c-.052.111-.1.221-.146.335a6.671,6.671,0,0,0-.319,1.027c-.018.081-.03.164-.045.245a6.318,6.318,0,0,0-.126,1.212,6.865,6.865,0,0,0,.064.917c.022.156.061.305.092.458s.052.286.091.424c.046.165.108.324.165.484.045.123.084.25.136.37.06.138.13.269.2.4s.142.286.225.423c.056.094.119.18.18.271.118.176.24.35.373.515.034.042.072.081.107.123a6.724,6.724,0,0,0,1.191,1.1,7.7,7.7,0,0,0,.035,2.8,6.71,6.71,0,0,0-4.215-1.512,6.787,6.787,0,0,0-1.368.14,9.438,9.438,0,0,0-2.4-1.777,6.74,6.74,0,0,0,2.414-5.144,6.658,6.658,0,0,0-.122-1.212c-.015-.083-.027-.164-.045-.245A6.823,6.823,0,0,0,6.3,21.859c-.045-.114-.1-.224-.146-.335a6.788,6.788,0,0,0-.441-.811c-.087-.136-.183-.263-.279-.392-.134-.18-.277-.353-.429-.519-.113-.123-.221-.247-.342-.362A6.961,6.961,0,0,0,4.056,18.932Zm3.972,20.5c-.064.09-.121.182-.18.275a6.832,6.832,0,0,0-.439.808c-.039.085-.084.168-.121.255A6.679,6.679,0,0,0,6.96,41.78c-.085-.026-.172-.047-.255-.079s-.16-.058-.237-.094A3.935,3.935,0,0,1,6,41.352c-.054-.034-.111-.061-.164-.1a4.1,4.1,0,0,1-.549-.453c-.043-.042-.079-.091-.119-.136a4.189,4.189,0,0,1-.343-.415c-.05-.069-.094-.144-.138-.217a4.281,4.281,0,0,1-.228-.418q-.057-.12-.106-.244a3.882,3.882,0,0,1-.149-.481c-.019-.077-.043-.152-.058-.231a4.348,4.348,0,0,1-.073-.755,4,4,0,0,1,.073-.727c.018-.094.043-.184.066-.275a3.86,3.86,0,0,1,.122-.392c.042-.113.085-.225.138-.334.039-.084.088-.164.133-.244a4.086,4.086,0,0,1,2.189-1.844c.005,0,.008-.007.014-.009a4.026,4.026,0,0,1,1.333-.243,4.075,4.075,0,0,1,3.894,2.886A6.668,6.668,0,0,0,11,37.059c-.084.035-.164.079-.247.117a6.986,6.986,0,0,0-.818.443c-.092.058-.183.115-.271.178A6.8,6.8,0,0,0,8.029,39.434Zm19.1,2.54a1.356,1.356,0,0,0-1.356,1.356V74.523H21.7V56.892H18.987V74.523H14.918V43.33H12.206V55.536H9.494V43.33a4.074,4.074,0,0,1,4.069-4.069H33.905a1.35,1.35,0,0,0,.959-.4l7.178-7.178.791.791,1.36,1.36-.018.018-.005.005L36.634,41.4l-.578.578Zm4.069,9.494v4.069H28.481V44.686h5.575A9.457,9.457,0,0,0,31.193,51.468Zm16.275,4.069H33.905V51.468a6.781,6.781,0,0,1,13.562,0ZM45.055,43.048a6.738,6.738,0,0,0,2.413-5.143,6.83,6.83,0,0,0-.069-.915c-.012-.09-.028-.178-.045-.266a6.612,6.612,0,0,0-.156-.667c-.024-.084-.043-.168-.071-.251a6.832,6.832,0,0,0-.3-.765l.245-.245a1.355,1.355,0,0,0,0-1.918l-1.116-1.116a6.913,6.913,0,0,1,6.953.732,6.542,6.542,0,0,0-.6.507c-.121.115-.229.239-.342.362a6.551,6.551,0,0,0-.429.519c-.1.129-.193.255-.279.392a6.789,6.789,0,0,0-.441.811c-.052.111-.1.221-.146.335a6.671,6.671,0,0,0-.319,1.027c-.018.081-.03.164-.045.245a6.318,6.318,0,0,0-.126,1.212,6.738,6.738,0,0,0,2.413,5.143A9.543,9.543,0,0,0,48.824,46.6,9.543,9.543,0,0,0,45.055,43.048ZM63.742,55.536H50.18V51.468a6.781,6.781,0,0,1,13.562,0ZM61.329,43.048a6.738,6.738,0,0,0,2.413-5.143,6.658,6.658,0,0,0-.122-1.212c-.015-.083-.027-.164-.045-.245a6.822,6.822,0,0,0-.319-1.027c-.045-.114-.1-.224-.146-.335a6.787,6.787,0,0,0-.441-.811c-.087-.136-.183-.263-.279-.392-.134-.18-.277-.353-.429-.519-.113-.123-.221-.247-.342-.362a6.963,6.963,0,0,0-.6-.507,6.956,6.956,0,0,1,8.166,0,6.541,6.541,0,0,0-.6.507c-.121.115-.229.239-.342.362a6.553,6.553,0,0,0-.429.519c-.1.129-.193.255-.279.392a6.789,6.789,0,0,0-.441.811c-.052.111-.1.221-.146.335a6.67,6.67,0,0,0-.319,1.027c-.018.081-.03.164-.045.245a6.318,6.318,0,0,0-.126,1.212,6.738,6.738,0,0,0,2.413,5.143A9.543,9.543,0,0,0,65.1,46.6,9.543,9.543,0,0,0,61.329,43.048ZM80.017,55.536H66.455V51.468a6.781,6.781,0,0,1,13.562,0Z" transform="translate(0 -4)" fill="url(#linear-gradient)"/>
        </g>
      </g>
      <g id="Group_4372" data-name="Group 4372" transform="translate(56.961 61.358)">
        <g id="Group_4371" data-name="Group 4371">
          <path id="Path_7335" data-name="Path 7335" d="M360.412,350.084h-4.069v-4.069a1.353,1.353,0,0,0-.4-.959l-2.713-2.713-1.918,1.918,2.315,2.315v3.507H337.356A1.356,1.356,0,0,0,336,351.44V365a1.356,1.356,0,0,0,1.356,1.356h23.056A1.356,1.356,0,0,0,361.768,365V351.44A1.356,1.356,0,0,0,360.412,350.084Zm-1.356,13.562H338.712V352.8h20.343Z" transform="translate(-336 -342.344)" fill="url(#linear-gradient)"/>
        </g>
      </g>
      <g id="Group_4374" data-name="Group 4374" transform="translate(1.356 82.661)">
        <g id="Group_4373" data-name="Group 4373">
          <rect id="Rectangle_1881" data-name="Rectangle 1881" width="2.712" height="2.712" fill="url(#linear-gradient)"/>
        </g>
      </g>
      <g id="Group_4376" data-name="Group 4376" transform="translate(6.781 82.661)">
        <g id="Group_4375" data-name="Group 4375">
          <rect id="Rectangle_1882" data-name="Rectangle 1882" width="2.712" height="2.712" fill="url(#linear-gradient)"/>
        </g>
      </g>
      <g id="Group_4378" data-name="Group 4378" transform="translate(12.206 82.661)">
        <g id="Group_4377" data-name="Group 4377">
          <rect id="Rectangle_1883" data-name="Rectangle 1883" width="2.712" height="2.712" fill="url(#linear-gradient)"/>
        </g>
      </g>
      <g id="Group_4380" data-name="Group 4380" transform="translate(18.987 41.974)">
        <g id="Group_4379" data-name="Group 4379">
          <rect id="Rectangle_1884" data-name="Rectangle 1884" width="2.712" height="8.137" fill="url(#linear-gradient)"/>
        </g>
      </g>
    </g>
  </g>
</svg>
