<svg xmlns="http://www.w3.org/2000/svg" xmlns:xlink="http://www.w3.org/1999/xlink" width="24" height="19" viewBox="0 0 24 19">
  <defs>
    <clipPath id="clip-path">
      <rect id="Rectangle_2614" data-name="Rectangle 2614" width="24" height="19" transform="translate(98 336)" fill="#16a086" stroke="#16a086" stroke-width="0.3"/>
    </clipPath>
  </defs>
  <g id="Email" transform="translate(-98 -336)" clip-path="url(#clip-path)">
    <g id="Group_6095" data-name="Group 6095" transform="translate(0 7.035)">
      <g id="envelope_1_" data-name="envelope (1)" transform="translate(100 330.965)">
        <g id="Group_6094" data-name="Group 6094" transform="translate(0 0)">
          <path id="Path_16340" data-name="Path 16340" d="M16.829,57.75H2.344A2.346,2.346,0,0,0,0,60.094v9.9a2.346,2.346,0,0,0,2.344,2.344H16.825a2.346,2.346,0,0,0,2.344-2.344V60.1A2.344,2.344,0,0,0,16.829,57.75ZM18.1,69.994a1.275,1.275,0,0,1-1.273,1.273H2.344a1.275,1.275,0,0,1-1.273-1.273V60.1a1.275,1.275,0,0,1,1.273-1.273H16.825A1.275,1.275,0,0,1,18.1,60.1v9.9Z" transform="translate(0 -57.75)" fill="#16a086" stroke="#16a086" stroke-width="0.3"/>
          <path id="Path_16341" data-name="Path 16341" d="M65.63,114.045l4.688-4.2a.536.536,0,0,0-.718-.8l-6.465,5.8-1.261-1.126s-.008-.008-.008-.012a.791.791,0,0,0-.087-.075l-5.132-4.593a.537.537,0,0,0-.714.8l4.744,4.24L55.953,118.5a.538.538,0,0,0-.024.758.548.548,0,0,0,.393.171.537.537,0,0,0,.365-.143l4.8-4.486,1.3,1.162a.534.534,0,0,0,.714,0l1.337-1.2,4.768,4.53a.537.537,0,0,0,.758-.02.538.538,0,0,0-.02-.758Z" transform="translate(-53.541 -106.874)" fill="#16a086" stroke="#16a086" stroke-width="0.3"/>
        </g>
      </g>
    </g>
  </g>
</svg>
