<svg xmlns="http://www.w3.org/2000/svg" width="79" height="72.283" viewBox="0 0 79 72.283">
  <g id="Lengkap" transform="translate(0 -1.146)">
    <path id="Path_7197" data-name="Path 7197" d="M.624,15.318H5.543a.639.639,0,0,0,.636-.651A7.1,7.1,0,0,1,13.146,7.5a.639.639,0,0,0,.636-.651V1.8a.647.647,0,0,0-.639-.654A13.355,13.355,0,0,0,0,14.667.633.633,0,0,0,.624,15.318Z" transform="translate(0 0)" fill="#fff"/>
    <path id="Path_7198" data-name="Path 7198" d="M.624,18.5H5.543a.638.638,0,0,0,.636-.648V7.511a.644.644,0,0,0-.636-.651H.624A.636.636,0,0,0,0,7.511V17.857A.632.632,0,0,0,.624,18.5Z" transform="translate(0 11.034)" fill="#fff"/>
    <path id="Path_7199" data-name="Path 7199" d="M.624,23.11H5.543a.636.636,0,0,0,.636-.648V12.119a.647.647,0,0,0-.636-.654H.624A.641.641,0,0,0,0,12.119V22.462A.63.63,0,0,0,.624,23.11Z" transform="translate(0 19.926)" fill="#fff"/>
    <path id="Path_7200" data-name="Path 7200" d="M.624,27.8H5.543a.634.634,0,0,0,.636-.648V16.82a.646.646,0,0,0-.636-.648H.624A.639.639,0,0,0,0,16.82V27.155A.628.628,0,0,0,.624,27.8Z" transform="translate(0 29.016)" fill="#fff"/>
    <path id="Path_7201" data-name="Path 7201" d="M24.87,12.187a.632.632,0,0,0,.624-.648V10.132l-2.222,2.052h1.6Z" transform="translate(44.941 17.352)" fill="#fff"/>
    <path id="Path_7202" data-name="Path 7202" d="M27.475,11.465H24.808l-2.884,3v7.993a.639.639,0,0,0,.63.648h4.924a.63.63,0,0,0,.624-.648V12.119A.643.643,0,0,0,27.475,11.465Z" transform="translate(42.336 19.926)" fill="#fff"/>
    <path id="Path_7203" data-name="Path 7203" d="M27.468,16.172H22.561a.646.646,0,0,0-.636.648V27.155a.634.634,0,0,0,.636.648h4.907a.633.633,0,0,0,.63-.648V16.82A.642.642,0,0,0,27.468,16.172Z" transform="translate(42.338 29.016)" fill="#fff"/>
    <path id="Path_7204" data-name="Path 7204" d="M25.257,23.638H15.2a.649.649,0,0,0-.636.648v5.056A.647.647,0,0,0,15.2,30H25.257a.639.639,0,0,0,.636-.654V24.286A.642.642,0,0,0,25.257,23.638Z" transform="translate(28.12 43.433)" fill="#fff"/>
    <path id="Path_7205" data-name="Path 7205" d="M20.771,23.638H10.712a.644.644,0,0,0-.63.648v5.056a.642.642,0,0,0,.63.654H20.771a.639.639,0,0,0,.636-.654V24.286A.644.644,0,0,0,20.771,23.638Z" transform="translate(19.469 43.433)" fill="#fff"/>
    <path id="Path_7206" data-name="Path 7206" d="M16.195,23.638H6.138a.644.644,0,0,0-.63.648v5.056a.642.642,0,0,0,.63.654H16.2a.636.636,0,0,0,.636-.654V24.286A.642.642,0,0,0,16.195,23.638Z" transform="translate(10.636 43.433)" fill="#fff"/>
    <path id="Path_7207" data-name="Path 7207" d="M15.2,7.5H25.257a.639.639,0,0,0,.636-.651V1.8a.643.643,0,0,0-.636-.654H15.2a.651.651,0,0,0-.636.654V6.856A.646.646,0,0,0,15.2,7.5Z" transform="translate(28.12)" fill="#fff"/>
    <path id="Path_7208" data-name="Path 7208" d="M10.712,7.5H20.771a.639.639,0,0,0,.636-.651V1.8a.645.645,0,0,0-.636-.654H10.712a.646.646,0,0,0-.63.654V6.856A.641.641,0,0,0,10.712,7.5Z" transform="translate(19.469)" fill="#fff"/>
    <path id="Path_7209" data-name="Path 7209" d="M6.138,7.5H16.2a.635.635,0,0,0,.636-.651V1.8a.644.644,0,0,0-.639-.654H6.138a.644.644,0,0,0-.63.654V6.856A.639.639,0,0,0,6.138,7.5Z" transform="translate(10.636 0)" fill="#fff"/>
    <path id="Path_7210" data-name="Path 7210" d="M13.143,28.724a7.1,7.1,0,0,1-6.967-7.161.637.637,0,0,0-.636-.642H.624A.626.626,0,0,0,0,21.561,13.344,13.344,0,0,0,13.143,35.076a.639.639,0,0,0,.636-.654V29.375A.644.644,0,0,0,13.143,28.724Z" transform="translate(0 38.188)" fill="#fff"/>
    <path id="Path_7211" data-name="Path 7211" d="M32.429,20.921H27.522a.637.637,0,0,0-.636.642,7.1,7.1,0,0,1-6.973,7.161.65.65,0,0,0-.63.654v5.05a.642.642,0,0,0,.63.654A13.338,13.338,0,0,0,33.056,21.566.63.63,0,0,0,32.429,20.921Z" transform="translate(37.236 38.186)" fill="#fff"/>
    <path id="Path_7212" data-name="Path 7212" d="M19.913,7.5c3.807.006,4.35.551,6.313,4.191L30.9,7.3c-1.647-4.751-5.548-6.152-10.991-6.152a.646.646,0,0,0-.63.654V6.856A.641.641,0,0,0,19.913,7.5Z" transform="translate(37.236)" fill="#fff"/>
    <path id="Path_7213" data-name="Path 7213" d="M70.264,9.552l-5.37-5.37a2.53,2.53,0,0,0-3.573,0L29.139,36.368,13.83,20.951a2.539,2.539,0,0,0-3.585,0L4.885,26.312a2.526,2.526,0,0,0,0,3.579L21.911,47.043l.059.079,3.7,3.711.865.865h0l.794.791a2.537,2.537,0,0,0,3.579,0L70.264,13.131A2.537,2.537,0,0,0,70.264,9.552Z" transform="translate(7.997 4.438)" fill="#fff"/>
  </g>
</svg>
