<svg xmlns="http://www.w3.org/2000/svg" xmlns:xlink="http://www.w3.org/1999/xlink" width="24" height="19" viewBox="0 0 24 19">
  <defs>
    <clipPath id="clip-path">
      <rect id="Rectangle_2615" data-name="Rectangle 2615" width="24" height="19" transform="translate(98 434)" fill="#16a086"/>
    </clipPath>
  </defs>
  <g id="Password" transform="translate(-98 -434)" clip-path="url(#clip-path)">
    <g id="Group_6096" data-name="Group 6096" transform="translate(2.93 -6.787)">
      <path id="Path_16342" data-name="Path 16342" d="M215.39,136.922v-2.8a2.006,2.006,0,0,1,2.006-2.006h3.259a2.006,2.006,0,0,1,2.006,2.006v2.8h1.447v-2.8a3.419,3.419,0,0,0-3.419-3.419h-3.271A3.419,3.419,0,0,0,214,134.119v2.8Z" transform="translate(-111.936 311.087)" fill="#16a086"/>
      <path id="Path_16343" data-name="Path 16343" d="M224.854,137.17H213.7a1.447,1.447,0,0,0-1.447,1.447V145.6a1.447,1.447,0,0,0,1.447,1.447h11.156A1.447,1.447,0,0,0,226.3,145.6v-6.986A1.447,1.447,0,0,0,224.854,137.17Zm-5.584,7.795a1.823,1.823,0,0,1-1.06-3.3,1.436,1.436,0,1,1,2.12,0,1.823,1.823,0,0,1-1.06,3.3Z" transform="translate(-112.18 311.99)" fill="#16a086"/>
    </g>
  </g>
</svg>
